# xmcd CD database file
#
# Track frame offsets:
#	150
#	15395
#	33525
#	46100
#	60335
#	80000
#	95625
#	110033
#	127633
#	137330
#	151603
#	167440
#
# Disc length: 2466 seconds
#
# Revision: 0
# Processed by: cddbd v1.4PL0 Copyright (c) Steve Scherf et al.
# Submitted via: Feurio! 1.65.3ß - http://www.feurio.com
#
DISCID=8109a00c
DTITLE=Tish Hinojosa - Tish Hinojosa - Homeland
DYEAR=1900
DGENRE=Country
TTITLE0=Joaquin
TTITLE1=West Side Of Town
TTITLE2=Donde Voy (Where I Go)
TTITLE3=In The Night
TTITLE4=Love Is On Our Side
TTITLE5=All My Love
TTITLE6=Till You Love Me Again
TTITLE7=Voice Of The Big Guitar
TTITLE8=Rancherita (Little Ranch Girl)
TTITLE9=Who Showed You The Way To My Heart
TTITLE10=Let Me Remember
TTITLE11=Amanecer (Daybreak)
EXTD=(c)1989 A&M Records/Polygram, UPC 082839526319\r\n
EXTT0=Songwriter: Tish Hinojosa\r\n
EXTT1=Songwriter: Tish Hinojosa\r\n
EXTT2=Songwriter: Tish Hinojosa\r\n
EXTT3=Songwriter: Tish Hinojosa/David Halley\r\n
EXTT4=Songwriter: Tish Hinojosa\r\n
EXTT5=Songwriter: Tish Hinojosa\r\n
EXTT6=Songwriter: Tish Hinojosa\r\n
EXTT7=Songwriter: Johnny Harris\r\n
EXTT8=Songwriter: Tish Hinojosa\r\n
EXTT9=Songwriter: Tish Hinojosa\r\n
EXTT10=Songwriter: Tish Hinojosa\r\n
EXTT11=Songwriter: Tish Hinojosa\r\n
PLAYORDER=
